<svg xmlns="http://www.w3.org/2000/svg" width="512" height="512" style="overflow: visible;" viewBox="0 0 512 512" data-svgdocument="" id="_YodPmaxCuMPuGHw7sqt54" class="fl-svgdocument" x="0" y="0" xmlns:xlink="http://www.w3.org/1999/xlink" data-bbox="140.35601393325345 75.72763830660287 231.62304803636647 360.5447233867942">
    <defs id="_6mUSJ8lk5fhoTTOndkLaV" transform="matrix(0.8863571286201477, 0, 0, 0.8863571286201477, -28.342926025390625, 70.07706451416016)" data-uid="o_enn8kj3h0_5"></defs>
    <path transform="matrix(1.7174887657165527, 0, 0, 1.7174887657165527, 170.12554931640625, 89.82723999023438)" data-type="circle" data-cx="50" data-cy="50" data-r="50" d="M50,50m-50,0a50,50 0 1, 0 100,0a50,50 0 1, 0 -100,0" fill="#ffffff" data-uid="o_enn8kj3h0_6"></path>
    <path id="_0jdQD07NULSEAxiaxZPOE" d="M88.307,0.013C39.536,0.013,0,39.549,0,88.32c0,48.77,39.536,88.307,88.307,88.307  c48.77,0,88.307-39.537,88.307-88.307C176.613,39.549,137.076,0.013,88.307,0.013z M88.307,163.341  c-41.433,0-75.021-33.589-75.021-75.021c0-41.433,33.587-75.021,75.021-75.021c41.432,0,75.021,33.587,75.021,75.021  C163.327,129.752,129.738,163.341,88.307,163.341z" stroke="none" fill="#1c9954" transform="matrix(1.097930669784546, 0, 0, 1.097930669784546, 159.04502868652344, 76.2623291015625)" stroke-width="1" data-uid="o_enn8kj3h0_7"></path>
    <path id="_j680GwHHsxer36p6m-UmU" fill="#fff" transform="matrix(0.8376964330673218, 0, 0, 0.8376964330673218, 255.45550537109375, 357.3865966796875)" text="nice" text-anchor="middle" font-size="100" letter-spacing="0" side="left" offset="0.5" dx="0" dy="0" space="preserve" href="" font-family="Bungee" font-scale="contain" x="0" y="0" data-fl-textpath="" data-uid="o_enn8kj3h0_8" d="M-106.5 0L-106.5 0L-121.5 0Q-123.4 0 -124.25-0.85Q-125.1-1.7 -125.1-3.6L-125.1-3.6L-125.1-68.4Q-125.1-70.3 -124.25-71.15Q-123.4-72 -121.5-72L-121.5-72L-111.1-72Q-109.2-72 -107.85-71.4Q-106.5-70.8 -105.2-69.3L-105.2-69.3L-85.8-47.1L-85.8-68.4Q-85.8-70.3 -84.95-71.15Q-84.1-72 -82.2-72L-82.2-72L-67.2-72Q-65.3-72 -64.45-71.15Q-63.599999999999994-70.3 -63.599999999999994-68.4L-63.599999999999994-68.4L-63.599999999999994-3.6Q-63.599999999999994-1.7 -64.45-0.85Q-65.3 0 -67.2 0L-67.2 0L-82.2 0Q-84.1 0 -84.95-0.85Q-85.8-1.7 -85.8-3.6L-85.8-3.6L-85.8-15.9L-102.9-36.6L-102.9-3.6Q-102.9-1.7 -103.75-0.85Q-104.6 0 -106.5 0ZM-5.200000000000003 0L-47.800000000000004 0Q-49.7 0 -50.550000000000004-0.85Q-51.400000000000006-1.7 -51.400000000000006-3.6L-51.400000000000006-3.6L-51.400000000000006-15.5Q-51.400000000000006-17.4 -50.550000000000004-18.25Q-49.7-19.1 -47.800000000000004-19.1L-47.800000000000004-19.1L-37.900000000000006-19.1L-37.900000000000006-52.7L-47.800000000000004-52.7Q-49.7-52.7 -50.550000000000004-53.55Q-51.400000000000006-54.4 -51.400000000000006-56.3L-51.400000000000006-56.3L-51.400000000000006-68.4Q-51.400000000000006-70.3 -50.550000000000004-71.15Q-49.7-72 -47.800000000000004-72L-47.800000000000004-72L-5.200000000000003-72Q-3.3000000000000043-72 -2.450000000000003-71.15Q-1.6000000000000014-70.3 -1.6000000000000014-68.4L-1.6000000000000014-68.4L-1.6000000000000014-56.3Q-1.6000000000000014-54.4 -2.450000000000003-53.55Q-3.3000000000000043-52.7 -5.200000000000003-52.7L-5.200000000000003-52.7L-14.900000000000006-52.7L-14.900000000000006-19.1L-5.200000000000003-19.1Q-3.3000000000000043-19.1 -2.450000000000003-18.25Q-1.6000000000000014-17.4 -1.6000000000000014-15.5L-1.6000000000000014-15.5L-1.6000000000000014-3.6Q-1.6000000000000014-1.7 -2.450000000000003-0.85Q-3.3000000000000043 0 -5.200000000000003 0L-5.200000000000003 0ZM 58.599999999999994 0L 58.599999999999994 0L 34.2 0Q 21.7 0  15.65-5Q 9.600000000000001-10  9.600000000000001-20.4L 9.600000000000001-20.4L 9.600000000000001-51.5Q 9.600000000000001-61.9  15.65-66.95Q 21.7-72  34.2-72L 34.2-72L 58.599999999999994-72Q 60.5-72  61.349999999999994-71.15Q 62.2-70.3  62.2-68.4L 62.2-68.4L 62.2-56.3Q 62.2-54.4  61.349999999999994-53.55Q 60.5-52.7  58.599999999999994-52.7L 58.599999999999994-52.7L 38.5-52.7Q 35.400000000000006-52.7  33.900000000000006-51.45Q 32.400000000000006-50.2  32.400000000000006-47.7L 32.400000000000006-47.7L 32.400000000000006-23.9Q 32.400000000000006-21.4  33.900000000000006-20.25Q 35.400000000000006-19.1  38.5-19.1L 38.5-19.1L 58.599999999999994-19.1Q 60.5-19.1  61.349999999999994-18.25Q 62.2-17.4  62.2-15.5L 62.2-15.5L 62.2-3.6Q 62.2-1.7  61.349999999999994-0.85Q 60.5 0  58.599999999999994 0ZM 123.5 0L 123.5 0L 77.1 0Q 75.19999999999999 0  74.35-0.85Q 73.5-1.7  73.5-3.6L 73.5-3.6L 73.5-68.4Q 73.5-70.3  74.35-71.15Q 75.19999999999999-72  77.1-72L 77.1-72L 123.5-72Q 125.39999999999999-72  126.25-71.15Q 127.1-70.3  127.1-68.4L 127.1-68.4L 127.1-56.7Q 127.1-54.8  126.25-53.95Q 125.39999999999999-53.1  123.5-53.1L 123.5-53.1L 95.89999999999999-53.1L 95.89999999999999-45.4L 115.39999999999999-45.4Q 117.3-45.4  118.14999999999999-44.55Q 119-43.7  119-41.8L 119-41.8L 119-31.1Q 119-29.2  118.14999999999999-28.35Q 117.3-27.5  115.39999999999999-27.5L 115.39999999999999-27.5L 95.89999999999999-27.5L 95.89999999999999-18.9L 123.5-18.9Q 125.39999999999999-18.9  126.25-18.05Q 127.1-17.2  127.1-15.3L 127.1-15.3L 127.1-3.6Q 127.1-1.7  126.25-0.85Q 125.39999999999999 0  123.5 0Z"></path>
    <path id="_2iCrrnB8Luf0nOxoACzov" fill="#fff" transform="matrix(0.8376964330673218, 0, 0, 0.8376964330673218, 255.1623077392578, 436.2723693847656)" text="mail" text-anchor="middle" font-size="100" letter-spacing="0" side="left" offset="0.5" dx="0" dy="0" space="preserve" href="" font-family="Bungee" font-scale="contain" x="0" y="0" data-fl-textpath="" data-uid="o_enn8kj3h0_9" d="M-118.54999999999998 0L-118.54999999999998 0L-133.45 0Q-135.35 0 -136.2-0.85Q-137.04999999999998-1.7 -137.04999999999998-3.6L-137.04999999999998-3.6L-137.04999999999998-68.4Q-137.04999999999998-70.3 -136.2-71.15Q-135.35-72 -133.45-72L-133.45-72L-117.35-72Q-115.74999999999999-72 -114.69999999999999-71.3Q-113.64999999999999-70.6 -112.74999999999999-69L-112.74999999999999-69L-103.74999999999999-52.7Q-103.24999999999999-51.8 -102.89999999999999-51.4Q-102.54999999999998-51 -101.94999999999999-51L-101.94999999999999-51L-101.04999999999998-51Q-100.44999999999999-51 -100.1-51.4Q-99.74999999999999-51.8 -99.24999999999999-52.7L-99.24999999999999-52.7L-90.35-69Q-89.44999999999999-70.6 -88.39999999999999-71.3Q-87.35-72 -85.74999999999999-72L-85.74999999999999-72L-69.54999999999998-72Q-67.64999999999999-72 -66.79999999999998-71.15Q-65.94999999999999-70.3 -65.94999999999999-68.4L-65.94999999999999-68.4L-65.94999999999999-3.6Q-65.94999999999999-1.7 -66.79999999999998-0.85Q-67.64999999999999 0 -69.54999999999998 0L-69.54999999999998 0L-84.94999999999999 0Q-86.85 0 -87.69999999999999-0.85Q-88.54999999999998-1.7 -88.54999999999998-3.6L-88.54999999999998-3.6L-88.54999999999998-38.8L-94.44999999999999-27.9Q-95.35-26.2 -96.6-25.45Q-97.85-24.7 -99.74999999999999-24.7L-99.74999999999999-24.7L-103.74999999999999-24.7Q-105.64999999999999-24.7 -106.89999999999999-25.45Q-108.14999999999999-26.2 -109.04999999999998-27.9L-109.04999999999998-27.9L-114.94999999999999-38.8L-114.94999999999999-3.6Q-114.94999999999999-1.7 -115.79999999999998-0.85Q-116.64999999999999 0 -118.54999999999998 0ZM-26.049999999999983-51L-26.049999999999983-51L-30.749999999999982-35.8L-15.049999999999983-35.8L-19.749999999999986-51Q-20.149999999999984-51.9 -20.59999999999998-52.3Q-21.049999999999983-52.7 -21.649999999999984-52.7L-21.649999999999984-52.7L-24.149999999999984-52.7Q-24.749999999999986-52.7 -25.19999999999998-52.3Q-25.649999999999984-51.9 -26.049999999999983-51ZM-31.749999999999982-17.6L-31.749999999999982-3.6Q-31.749999999999982-1.7 -32.59999999999998-0.85Q-33.44999999999998 0 -35.34999999999998 0L-35.34999999999998 0L-50.04999999999998 0Q-51.94999999999998 0 -52.79999999999998-0.85Q-53.649999999999984-1.7 -53.649999999999984-3.6L-53.649999999999984-3.6L-53.649999999999984-30Q-53.649999999999984-33 -52.69999999999998-36.9Q-51.749999999999986-40.8 -49.749999999999986-46L-49.749999999999986-46L-41.04999999999998-68.7Q-40.44999999999998-70.4 -39.19999999999998-71.2Q-37.94999999999998-72 -35.94999999999998-72L-35.94999999999998-72L-9.049999999999983-72Q-7.149999999999984-72 -5.899999999999984-71.2Q-4.649999999999984-70.4 -4.049999999999983-68.7L-4.049999999999983-68.7L 4.65000000000002-46Q 6.65000000000002-40.8  7.600000000000023-36.9Q 8.550000000000011-33  8.550000000000011-30L 8.550000000000011-30L 8.550000000000011-3.6Q 8.550000000000011-1.7  7.700000000000017-0.85Q 6.850000000000023 0  4.950000000000017 0L 4.950000000000017 0L-10.149999999999984 0Q-12.149999999999984 0 -13.09999999999998-0.85Q-14.049999999999983-1.7 -14.049999999999983-3.6L-14.049999999999983-3.6L-14.049999999999983-17.6L-31.749999999999982-17.6ZM 65.45000000000002 0L 22.850000000000016 0Q 20.950000000000017 0  20.100000000000016-0.85Q 19.250000000000018-1.7  19.250000000000018-3.6L 19.250000000000018-3.6L 19.250000000000018-15.5Q 19.250000000000018-17.4  20.100000000000016-18.25Q 20.950000000000017-19.1  22.850000000000016-19.1L 22.850000000000016-19.1L 32.750000000000014-19.1L 32.750000000000014-52.7L 22.850000000000016-52.7Q 20.950000000000017-52.7  20.100000000000016-53.55Q 19.250000000000018-54.4  19.250000000000018-56.3L 19.250000000000018-56.3L 19.250000000000018-68.4Q 19.250000000000018-70.3  20.100000000000016-71.15Q 20.950000000000017-72  22.850000000000016-72L 22.850000000000016-72L 65.45000000000002-72Q 67.35000000000002-72  68.20000000000002-71.15Q 69.05000000000001-70.3  69.05000000000001-68.4L 69.05000000000001-68.4L 69.05000000000001-56.3Q 69.05000000000001-54.4  68.20000000000002-53.55Q 67.35000000000002-52.7  65.45000000000002-52.7L 65.45000000000002-52.7L 55.750000000000014-52.7L 55.750000000000014-19.1L 65.45000000000002-19.1Q 67.35000000000002-19.1  68.20000000000002-18.25Q 69.05000000000001-17.4  69.05000000000001-15.5L 69.05000000000001-15.5L 69.05000000000001-3.6Q 69.05000000000001-1.7  68.20000000000002-0.85Q 67.35000000000002 0  65.45000000000002 0L 65.45000000000002 0ZM 135.85000000000002 0L 135.85000000000002 0L 84.95000000000002 0Q 83.05000000000001 0  82.20000000000002-0.85Q 81.35000000000002-1.7  81.35000000000002-3.6L 81.35000000000002-3.6L 81.35000000000002-68.4Q 81.35000000000002-70.3  82.20000000000002-71.15Q 83.05000000000001-72  84.95000000000002-72L 84.95000000000002-72L 100.45000000000002-72Q 102.35000000000002-72  103.20000000000002-71.15Q 104.05000000000001-70.3  104.05000000000001-68.4L 104.05000000000001-68.4L 104.05000000000001-18.9L 117.75000000000001-18.9L 117.75000000000001-35.1Q 117.75000000000001-37  118.60000000000002-37.85Q 119.45000000000002-38.7  121.35000000000002-38.7L 121.35000000000002-38.7L 135.85000000000002-38.7Q 137.75-38.7  138.60000000000002-37.85Q 139.45000000000002-37  139.45000000000002-35.1L 139.45000000000002-35.1L 139.45000000000002-3.6Q 139.45000000000002-1.7  138.60000000000002-0.85Q 137.75 0  135.85000000000002 0Z"></path>
    <g id="_36D3Fpvw8BhKXlW5C9wVS" transform="matrix(0.8125, 0, 0, 0.8125, 48.535484313964844, 48.27448654174805)" data-uid="o_enn8kj3h0_10">
    <path id="_DM-25yiJOpjY_yesepP-5" d="M19,6H5C4.4,6,4,6.4,4,7v10c0,0.6,0.4,1,1,1h14c0.6,0,1-0.4,1-1V7C20,6.4,19.6,6,19,6z M18,16H6V8h12V16z" stroke="none" fill="#1d2936" transform="matrix(8.41717529296875, 0, 0, 8.41717529296875, 154.3348388671875, 45.88119125366211)" stroke-width="1" data-uid="o_enn8kj3h0_11"></path>
        <path id="_rO_PbUmBbAggpYK0ds17q" d="M456.26,294.24H44.338C19.952,294.24,0,274.286,0,249.9c0-24.386,19.952-44.338,44.338-44.338H456.26  c24.388,0,44.34,19.953,44.34,44.338C500.6,274.286,480.646,294.24,456.26,294.24" stroke="none" fill="#1d2936" transform="matrix(0.13254445791244507, 0, 0, 0.1567625254392624, 222.21922302246094, 175.28709411621094)" stroke-width="1" data-uid="o_enn8kj3h0_12"></path>
        <path id="_PwCsJ5XFgxHZ2ZBYDqqYB" d="M972-229c8-0.2,12,9.4,6.3,15l-40.8,40.8c-2.5,2.5-6.7,2.5-9.2,0L907.6-194c-8.6-8.2,4.1-20.9,12.3-12.3l11.5,11.5   c0.8,0.8,2.2,0.8,3.1,0l31.5-31.5C967.6-228,969.7-228.9,972-229L972-229z" stroke="none" fill="#1c9954" transform="matrix(0.7904669642448425, 0, 0, 0.7904669642448425, -489.85443115234375, 306.41656494140625)" stroke-width="1" data-uid="o_enn8kj3h0_13"></path>
    </g>
</svg>