<?xml version="1.0" standalone="no"?>
<!DOCTYPE svg PUBLIC "-//W3C//DTD SVG 20010904//EN"
 "http://www.w3.org/TR/2001/REC-SVG-20010904/DTD/svg10.dtd">
<svg version="1.0" xmlns="http://www.w3.org/2000/svg"
 width="700.000000pt" height="700.000000pt" viewBox="0 0 700.000000 700.000000"
 preserveAspectRatio="xMidYMid meet">
<metadata>
Created by potrace 1.14, written by Peter Selinger 2001-2017
</metadata>
<g transform="translate(0.000000,700.000000) scale(0.100000,-0.100000)"
fill="#000000" stroke="none">
<path d="M3352 5950 c-638 -80 -1120 -580 -1171 -1215 -49 -607 322 -1166 902
-1360 383 -128 821 -68 1155 157 272 184 466 458 546 773 60 237 49 517 -29
750 -130 391 -460 714 -852 838 -167 53 -394 76 -551 57z m275 -201 c251 -28
481 -138 663 -319 326 -323 422 -796 250 -1227 -117 -293 -375 -534 -683 -639
-219 -75 -514 -72 -727 6 -424 154 -708 518 -750 959 -61 648 445 1212 1103
1230 26 0 91 -4 144 -10z"/>
<path d="M2779 5241 l-29 -29 0 -497 c0 -509 1 -523 39 -552 23 -18 1399 -18
1422 0 38 29 39 43 39 552 l0 497 -29 29 -29 29 -692 0 -692 0 -29 -29z m1281
-531 l0 -370 -560 0 -560 0 0 370 0 370 560 0 560 0 0 -370z"/>
<path d="M3580 4795 c-86 -85 -161 -155 -166 -155 -5 0 -39 29 -74 65 -73 74
-109 84 -148 42 -44 -47 -32 -72 91 -195 68 -68 120 -112 132 -112 13 0 94 73
219 199 177 177 199 203 199 232 0 37 -40 79 -75 79 -14 0 -76 -54 -178 -155z"/>
<path d="M3155 4015 c-31 -30 -32 -73 -4 -109 l20 -26 329 0 329 0 20 26 c28
36 27 79 -4 109 l-24 25 -321 0 -321 0 -24 -25z"/>
</g>
</svg>
